<svg width="50" height="59" viewBox="0 0 50 59" fill="none" xmlns="http://www.w3.org/2000/svg">
<path d="M25 5C26.3807 5 27.5 3.88071 27.5 2.5C27.5 1.11929 26.3807 0 25 0C23.6193 0 22.5 1.11929 22.5 2.5C22.5 3.88071 23.6193 5 25 5Z" fill="white"/>
<path d="M25 5H24.5V10H21.5C21.0558 10 20.6793 10.2896 20.5489 10.6903C10.5639 11.8411 0 24.5266 0 37C0 52.5 6.5 58.5 25 58.5C42 58.5 50 53.5 50 37C50 24.547 39.4706 12.6346 29.5 10.9955C29.4976 10.4453 29.0508 10 28.5 10H25.5V5H25Z" fill="white"/>
<path d="M13.5985 21.2116C14.7909 20.3222 16.2719 20 17.7594 20H31.8036C33.2506 20 34.6901 20.299 35.9139 21.0711C37.9558 22.3593 41.0279 24.7597 42 28C42.6816 30.2722 42.6222 32.123 42.2889 33.5424C41.7102 36.0072 39.0921 37 36.5603 37H13.1902C11.428 37 9.61668 36.5888 8.47548 35.2461C7.11156 33.6414 5.90759 30.9873 7.99999 27.5C9.8904 24.3493 12.0762 22.3472 13.5985 21.2116Z" fill="#0B073C"/>
<path fill-rule="evenodd" clip-rule="evenodd" d="M31.5 34C33.9853 34 36 31.7614 36 29C36 26.2386 33.9853 24 31.5 24C29.0147 24 27 26.2386 27 29C27 31.7614 29.0147 34 31.5 34ZM31.5 33.5C32.8807 33.5 34 31.933 34 30C34 28.067 32.8807 26.5 31.5 26.5C30.1193 26.5 29 28.067 29 30C29 31.933 30.1193 33.5 31.5 33.5Z" fill="white"/>
<path fill-rule="evenodd" clip-rule="evenodd" d="M18 34C20.4853 34 22.5 31.7614 22.5 29C22.5 26.2386 20.4853 24 18 24C15.5147 24 13.5 26.2386 13.5 29C13.5 31.7614 15.5147 34 18 34ZM18 33.5C19.3807 33.5 20.5 31.933 20.5 30C20.5 28.067 19.3807 26.5 18 26.5C16.6193 26.5 15.5 28.067 15.5 30C15.5 31.933 16.6193 33.5 18 33.5Z" fill="white"/>
</svg>
